<svg xmlns="http://www.w3.org/2000/svg" width="122.191" height="128" viewBox="0 0 122.191 128">
  <g id="face-mask" transform="translate(-2.946 -2.271)">
    <path id="Path_30571" data-name="Path 30571" d="M67.712,8.977c-31.93,0-46.947,26.744-46.947,59.734s23.079,59.735,46.947,59.735,46.947-26.744,46.947-59.735S99.643,8.977,67.712,8.977ZM60.636,79.488a1.59,1.59,0,0,1,2.245-.169c3.318,2.853,6.4,2.854,9.727,0a1.592,1.592,0,1,1,2.076,2.415,10.664,10.664,0,0,1-6.94,2.93,10.659,10.659,0,0,1-6.94-2.93,1.592,1.592,0,0,1-.168-2.246Zm-26.2-13.6c0-5.5,5.771-9.959,12.889-9.959s12.888,4.459,12.888,9.959-5.765,9.959-12.888,9.959S34.438,71.385,34.438,65.886Zm47.687,36.979a18.885,18.885,0,0,1-14.383,5.969,18.885,18.885,0,0,1-14.384-5.969,2.077,2.077,0,0,1,.316-3.066c3.842-2.837,7.213-5.506,10.388-5.506a4.4,4.4,0,0,1,2.612.71,1.954,1.954,0,0,0,2.135,0,4.4,4.4,0,0,1,2.612-.71c3.175,0,6.546,2.669,10.388,5.506a2.077,2.077,0,0,1,.316,3.066Zm6.035-27.02c-7.118,0-12.888-4.46-12.888-9.959s5.77-9.959,12.888-9.959,12.889,4.459,12.889,9.959-5.768,9.959-12.885,9.959Z" transform="translate(1.521 0.572)" fill="#1e6ad3"/>
    <path id="Path_30572" data-name="Path 30572" d="M69,95.69H60.07a1.712,1.712,0,0,1,0-3.423H69a1.712,1.712,0,0,1,0,3.423Z" transform="translate(4.73 7.682)" fill="#1e6ad3"/>
    <path id="Path_30573" data-name="Path 30573" d="M110.609,105.817l1.37,2.506a2.606,2.606,0,0,0,1.032,1.032l2.506,1.371a2.6,2.6,0,0,1,0,4.559l-2.506,1.371a2.605,2.605,0,0,0-1.032,1.032l-1.37,2.506a2.6,2.6,0,0,1-4.558,0l-1.371-2.506a2.6,2.6,0,0,0-1.032-1.032l-2.506-1.371a2.6,2.6,0,0,1,0-4.559l2.506-1.371a2.6,2.6,0,0,0,1.032-1.032l1.371-2.506a2.6,2.6,0,0,1,4.559,0Z" transform="translate(8.266 8.723)" fill="#1e6ad3"/>
    <path id="Path_30574" data-name="Path 30574" d="M13.763,18.55l1.371,2.506a2.592,2.592,0,0,0,1.032,1.031l2.506,1.371a2.6,2.6,0,0,1,0,4.559l-2.506,1.371a2.592,2.592,0,0,0-1.032,1.031l-1.371,2.506a2.6,2.6,0,0,1-4.559,0L7.838,30.416a2.6,2.6,0,0,0-1.032-1.031L4.3,28.014a2.6,2.6,0,0,1,0-4.559l2.5-1.371a2.6,2.6,0,0,0,1.032-1.031l1.371-2.506a2.6,2.6,0,0,1,4.556,0Z" transform="translate(0 1.274)" fill="#1e6ad3"/>
    <path id="Path_30575" data-name="Path 30575" d="M24.787,3.153l.9,1.637a1.692,1.692,0,0,0,.674.674l1.637.9a1.7,1.7,0,0,1,0,2.976l-1.637.9a1.692,1.692,0,0,0-.674.674l-.9,1.637a1.7,1.7,0,0,1-2.976,0l-.9-1.637a1.692,1.692,0,0,0-.674-.674l-1.638-.9a1.7,1.7,0,0,1,0-2.976l1.638-.9a1.692,1.692,0,0,0,.674-.674l.9-1.637a1.7,1.7,0,0,1,2.976,0Z" transform="translate(1.261 0)" fill="#1e6ad3"/>
  </g>
</svg>
