<svg xmlns="http://www.w3.org/2000/svg" width="117.906" height="128" viewBox="0 0 117.906 128">
  <g id="beauty-treatment" transform="translate(-4.793 -0.489)">
    <circle id="Ellipse_1424" data-name="Ellipse 1424" cx="6.318" cy="6.318" r="6.318" transform="translate(95.906 85.425)" fill="#1e6ad3"/>
    <circle id="Ellipse_1425" data-name="Ellipse 1425" cx="5.712" cy="5.712" r="5.712" transform="translate(4.793 59.981)" fill="#1e6ad3"/>
    <circle id="Ellipse_1426" data-name="Ellipse 1426" cx="3.903" cy="3.903" r="3.903" transform="translate(114.893 65.056)" fill="#1e6ad3"/>
    <circle id="Ellipse_1427" data-name="Ellipse 1427" cx="3.903" cy="3.903" r="3.903" transform="translate(8.01 40.127)" fill="#1e6ad3"/>
    <circle id="Ellipse_1428" data-name="Ellipse 1428" cx="3.073" cy="3.073" r="3.073" transform="translate(22.806 93.263)" fill="#1e6ad3"/>
    <circle id="Ellipse_1429" data-name="Ellipse 1429" cx="3.774" cy="3.774" r="3.774" transform="translate(113.795 32.189)" fill="#1e6ad3"/>
    <path id="Path_30565" data-name="Path 30565" d="M64.031,70.457a5.66,5.66,0,0,1-3.693-1.539,1.411,1.411,0,0,1,1.835-2.131,2.453,2.453,0,0,0,3.716,0,1.411,1.411,0,0,1,1.835,2.131A5.659,5.659,0,0,1,64.031,70.457Z" transform="translate(0.424 0.508)" fill="#1e6ad3"/>
    <path id="Path_30566" data-name="Path 30566" d="M72.6,76.5a1.085,1.085,0,0,0-1.271-.86h-.018a9.913,9.913,0,0,1-3.4.089c-.282-.041-.557-.1-.887-.159a4.019,4.019,0,0,0-1.436-.07,3.551,3.551,0,0,0-1.4.571.243.243,0,0,1-.248,0,3.551,3.551,0,0,0-1.4-.571,4.019,4.019,0,0,0-1.436.07c-.329.064-.6.118-.887.159a9.906,9.906,0,0,1-3.4-.089H56.8a1.084,1.084,0,0,0-.636,2.061,10.04,10.04,0,0,0,4.281.828c.365-.01.734-.04,1.047-.065.294-.026.42.022.858.279a3.184,3.184,0,0,0,1.6.464h.226a3.184,3.184,0,0,0,1.6-.464c.437-.257.563-.3.858-.279.313.024.682.055,1.047.065a10.04,10.04,0,0,0,4.281-.828A1.085,1.085,0,0,0,72.6,76.5Z" transform="translate(0.39 0.577)" fill="#1e6ad3"/>
    <path id="Path_30567" data-name="Path 30567" d="M64.023,84.126a5.1,5.1,0,0,1-2.23-.527,1.512,1.512,0,0,1,1.31-2.721,1.956,1.956,0,0,0,1.838,0,1.512,1.512,0,1,1,1.31,2.721A5.113,5.113,0,0,1,64.023,84.126Z" transform="translate(0.433 0.617)" fill="#1e6ad3"/>
    <path id="Path_30568" data-name="Path 30568" d="M73.264,57.62a6.029,6.029,0,0,0,2.424.211,13.008,13.008,0,0,0,2.681-.549c.447-.141.9-.287,1.332-.464.208-.071,1.391-.585,1.391-.585a4.635,4.635,0,0,1,2.078-.385,2.442,2.442,0,0,1,1.969,1.171.711.711,0,0,1-.705,1.034l-.2-.022a1.735,1.735,0,0,0-.95.169c-.274.119-1.594.933-1.594.933-.259.144-.517.294-.781.42a12.728,12.728,0,0,1-1.635.644,10.774,10.774,0,0,1-3.544.509,5.889,5.889,0,0,1-3.641-1.28,1.081,1.081,0,0,1,1.032-1.854Z" transform="translate(0.515 0.426)" fill="#1e6ad3"/>
    <path id="Path_30569" data-name="Path 30569" d="M56.018,59.427a5.889,5.889,0,0,1-3.641,1.28,10.773,10.773,0,0,1-3.544-.509,12.718,12.718,0,0,1-1.634-.644c-.265-.126-2.1-1.234-2.375-1.353a1.735,1.735,0,0,0-.95-.169l-.2.022a.711.711,0,0,1-.785-.628.7.7,0,0,1,.076-.4,2.442,2.442,0,0,1,1.969-1.171,4.462,4.462,0,0,1,2.078.385c.349.143,1.173.511,1.391.584.433.177.885.323,1.332.465a13.012,13.012,0,0,0,2.681.549,6.028,6.028,0,0,0,2.418-.211l.146-.047a1.081,1.081,0,0,1,1.04,1.85Z" transform="translate(0.293 0.426)" fill="#1e6ad3"/>
    <path id="Path_30570" data-name="Path 30570" d="M112.047,126.4a28.766,28.766,0,0,0-7.129-10.659c-3.172-2.937-8.968-4.837-14.567-6.682a67.836,67.836,0,0,1-8.731-3.274c-5.729-2.906-6.046-8.234-6.272-12.125,0-.094-.011-.173-.017-.265a40.378,40.378,0,0,0,7.777-6.091,30.039,30.039,0,0,0,7.146-11.867c4.945-.157,9.935-5.436,10.719-10.185a12.216,12.216,0,0,0,.163-1.567,4.345,4.345,0,0,0,2.164-1.776c1.8-2.922.806-6.435-.246-10.157l-.064-.224c2.189-7.926,1.374-24.7-7.356-36.781-6.043-8.355-20.117-17-30.4-13.44a2.651,2.651,0,0,1-1.743,0C53.215-2.252,39.14,6.4,33.1,14.75c-8.734,12.086-9.549,28.859-7.356,36.781l-.064.224c-1.052,3.721-2.049,7.235-.247,10.157A4.338,4.338,0,0,0,27.6,63.685a12.055,12.055,0,0,0,.162,1.56C28.545,70,33.536,75.281,38.48,75.438a30.029,30.029,0,0,0,7.142,11.871A40.408,40.408,0,0,0,53.4,93.4c-.006.092-.012.171-.017.265-.23,3.891-.542,9.218-6.272,12.125a67.837,67.837,0,0,1-8.731,3.274c-5.6,1.841-11.4,3.745-14.567,6.682A28.766,28.766,0,0,0,16.687,126.4a1.512,1.512,0,0,0,.82,1.972,1.484,1.484,0,0,0,.57.113,1.511,1.511,0,0,0,1.4-.94,25.871,25.871,0,0,1,6.386-9.585c2.688-2.489,8.409-4.368,13.456-6.028a69.719,69.719,0,0,0,9.155-3.449c6.68-3.389,7.567-9.437,7.853-13.577a31.912,31.912,0,0,0,6.264,2.071,8.163,8.163,0,0,0,3.537,0A31.956,31.956,0,0,0,72.4,94.909c.286,4.139,1.173,10.188,7.853,13.577a69.717,69.717,0,0,0,9.155,3.449c5.047,1.66,10.768,3.539,13.456,6.028a25.87,25.87,0,0,1,6.386,9.585,1.511,1.511,0,0,0,1.4.94,1.483,1.483,0,0,0,.57-.113,1.512,1.512,0,0,0,.83-1.971ZM93.078,60.014q.883.774,1.69,1.447a1.426,1.426,0,0,0-.219-.044,4.6,4.6,0,0,0-1.558.123C93.028,61.036,93.052,60.523,93.078,60.014Zm-.5,5.494c.622-1.17,1.411-1.108,1.676-1.081a1.5,1.5,0,0,0,1.512-2.148c.332.266.664.533.971.768a4.5,4.5,0,0,0,1.367.714,9.394,9.394,0,0,1-.112,1c-.5,3.062-3.666,6.726-6.752,7.516a55.279,55.279,0,0,0,1.337-6.766Zm-56.935-5.49c.026.511.055,1.019.092,1.521a4.623,4.623,0,0,0-1.558-.122,1.426,1.426,0,0,0-.219.044Q34.768,60.789,35.646,60.018Zm-4.909,4.73a9.387,9.387,0,0,1-.111-.987,4.522,4.522,0,0,0,1.362-.711c.309-.236.644-.5.976-.772a1.5,1.5,0,0,0,1.512,2.148c.263-.028,1.051-.089,1.674,1.08a55.626,55.626,0,0,0,1.342,6.764c-3.086-.794-6.249-4.456-6.755-7.522ZM65.473,94.029a5.139,5.139,0,0,1-2.226,0C56,92.429,51.5,88.811,47.72,85.139A28,28,0,0,1,41.069,73.7c-.016-.046-.144-.437-.163-.5A50.142,50.142,0,0,1,39.1,64.8a65.274,65.274,0,0,1-.518-7.446c2.63-2.438,5.557-5.324,8.723-8.6l.063-.026a60.277,60.277,0,0,1,8.394.517l.051.01a1.2,1.2,0,0,0,.731-2.262,13.245,13.245,0,0,0-4.2-1.1,18.779,18.779,0,0,0-2.217-.092c3.513-3.716,7.3-7.872,11.314-12.421a3.907,3.907,0,0,1,5.854,0c4.017,4.549,7.8,8.7,11.313,12.421a18.779,18.779,0,0,0-2.217.092,13.245,13.245,0,0,0-4.2,1.1,1.2,1.2,0,0,0,.732,2.262l.05-.01a60.106,60.106,0,0,1,8.392-.516l.067.026c3.167,3.282,6.094,6.167,8.722,8.6a65.216,65.216,0,0,1-.518,7.444,50.328,50.328,0,0,1-1.763,8.247c-.022.071-.2.643-.223.7A27.972,27.972,0,0,1,81,85.13C77.225,88.811,72.729,92.429,65.473,94.029Z" transform="translate(0.091 0)" fill="#1e6ad3"/>
  </g>
</svg>
