<svg xmlns="http://www.w3.org/2000/svg" width="127.985" height="128" viewBox="0 0 127.985 128">
  <g id="haircut" transform="translate(-0.036)">
    <g id="Page-1_36_" transform="translate(0.036 0)">
      <g id="_x30_37---Haircut-Appointment" transform="translate(0 0)">
        <path id="Path_228_" d="M345.4,17.461l15.952,15.952a.28.28,0,0,0,.167.062,12.725,12.725,0,0,0,.144-18.107L351.038,4.741a12.761,12.761,0,0,0-18.054,0L301.278,36.464l5.307,9.484,6.17-6.17,22.309-22.316a7.313,7.313,0,0,1,10.339,0Z" transform="translate(-237.428 -1)" fill="#1e6ad3" fill-rule="evenodd"/>
        <path id="Path_227_" d="M194.486,53.9,185.031,37l-.018-.034L166.657,4.161a5.866,5.866,0,0,0-1.019-1.341,6.136,6.136,0,0,0-5.586-1.65l16.164,46.363Z" transform="translate(-126.136 -1.03)" fill="#1e6ad3" fill-rule="evenodd"/>
        <path id="Path_226_" d="M14.376,341.2a7.262,7.262,0,0,1,2.137-5.17l28.5-28.491-9.484-5.3L3.8,333.958a12.777,12.777,0,0,0,0,18.054l10.627,10.627a12.75,12.75,0,0,0,18.054,0v-.311L16.513,346.368A7.26,7.26,0,0,1,14.376,341.2Z" transform="translate(-0.059 -238.385)" fill="#1e6ad3" fill-rule="evenodd"/>
        <path id="Shape_48_" d="M301.017,374.478a2.286,2.286,0,0,1-1.778-1.433l-3.73-9.635a11.291,11.291,0,0,1-7.914.827l4.452,12.8a2.286,2.286,0,0,1-.228,1.966c-3.035,4.84-3.41,12.373-.983,19.654,3.565,10.668,12.352,17.776,19.2,15.5a10.006,10.006,0,0,0,5.679-5.316,25.013,25.013,0,0,0,.309-18.531C313.177,381.8,307.148,375.438,301.017,374.478Zm10.807,30.891a6.4,6.4,0,0,1-3.593,3.41,5.193,5.193,0,0,1-1.666.265c-4.308,0-9.317-4.9-11.609-11.744a18.867,18.867,0,0,1,.1-13.712,6.4,6.4,0,0,1,3.6-3.409c4.571-1.524,10.679,3.727,13.273,11.481A18.86,18.86,0,0,1,311.824,405.369Z" transform="translate(-226.645 -286.595)" fill="#1e6ad3"/>
        <path id="Shape_47_" d="M112.074,191.369c-7.276-2.454-14.8-2.08-19.638.969a2.31,2.31,0,0,1-1.972.229L.17,161.072a6.061,6.061,0,0,0,1.648,5.563,5.866,5.866,0,0,0,1.314,1.024l54.887,30.685.043.025,2.53,1.415a6.678,6.678,0,0,0,7.923-1.1c.644-.655,1.527-1.527,2.176-2.167a4.5,4.5,0,0,1,4.8-1.028l11,4.253a2.285,2.285,0,0,1,1.435,1.783c.949,6.141,7.313,12.167,15.812,15a25,25,0,0,0,18.539-.3,9.969,9.969,0,0,0,5.3-5.663C129.891,203.6,122.934,194.989,112.074,191.369ZM62.044,192.4a2.285,2.285,0,1,1,0-3.232,2.285,2.285,0,0,1,0,3.225Zm60.175,16.34a6.4,6.4,0,0,1-3.412,3.6,14.55,14.55,0,0,1-6.442,1.33,23.145,23.145,0,0,1-7.274-1.225c-7.752-2.6-13.01-8.684-11.484-13.275a6.4,6.4,0,0,1,3.412-3.6,18.872,18.872,0,0,1,13.712-.105C118.487,198.047,123.745,204.125,122.219,208.737Z" transform="translate(-0.036 -127.144)" fill="#1e6ad3"/>
        <g id="Group_18757" data-name="Group 18757" transform="translate(23.242 23.249)">
          <path id="Path_225_" d="M132.634,467.879a2.317,2.317,0,0,1-3.245,0l-19.7-19.722,3.222-3.222,19.722,19.7A2.3,2.3,0,0,1,132.634,467.879Z" transform="translate(-109.689 -374.088)" fill="#1e6ad3" fill-rule="evenodd"/>
          <path id="Path_224_" d="M173.067,427.445a2.317,2.317,0,0,1-3.245,0l-19.7-19.722,3.222-3.222,19.722,19.7A2.3,2.3,0,0,1,173.067,427.445Z" transform="translate(-141.552 -342.225)" fill="#1e6ad3" fill-rule="evenodd"/>
          <path id="Path_223_" d="M209.912,380.18a22.761,22.761,0,0,0-1.371,5.119l-17.986-17.986,3.245-3.245Z" transform="translate(-173.415 -310.362)" fill="#1e6ad3" fill-rule="evenodd"/>
          <path id="Path_222_" d="M384.3,209.539a22.451,22.451,0,0,0-5.119,1.371L363.07,194.8l3.245-3.245Z" transform="translate(-309.365 -174.413)" fill="#1e6ad3" fill-rule="evenodd"/>
          <path id="Path_221_" d="M426.448,174.065a2.317,2.317,0,0,1-3.245,0l-19.7-19.7,3.246-3.245,19.7,19.7A2.3,2.3,0,0,1,426.448,174.065Z" transform="translate(-341.227 -142.55)" fill="#1e6ad3" fill-rule="evenodd"/>
          <path id="Path_220_" d="M466.881,133.632a2.317,2.317,0,0,1-3.245,0l-19.7-19.7,3.245-3.245,19.7,19.7A2.3,2.3,0,0,1,466.881,133.632Z" transform="translate(-373.091 -110.687)" fill="#1e6ad3" fill-rule="evenodd"/>
        </g>
      </g>
    </g>
  </g>
</svg>
