<svg xmlns="http://www.w3.org/2000/svg" width="92.032" height="128" viewBox="0 0 92.032 128">
  <g id="Group_18745" data-name="Group 18745" transform="translate(-58 -488)">
    <circle id="Ellipse_1430" data-name="Ellipse 1430" cx="1.893" cy="1.893" r="1.893" transform="translate(100.812 572.023)" fill="#1e6ad3"/>
    <g id="Group_18744" data-name="Group 18744" transform="translate(69.504 559.499)">
      <path id="Path_30576" data-name="Path 30576" d="M38.736,57.4A15.436,15.436,0,1,0,54.171,72.836,15.538,15.538,0,0,0,38.736,57.4Z" transform="translate(-23.3 -48.08)" fill="#1e6ad3"/>
      <path id="Path_30577" data-name="Path 30577" d="M41.884,51,39.7,53.912a18.728,18.728,0,0,1,5.97,7.718l3.349-1.456A22.411,22.411,0,0,0,41.884,51Z" transform="translate(-15.818 -51)" fill="#1e6ad3"/>
    </g>
    <path id="Path_30578" data-name="Path 30578" d="M58.94,68.3,50.349,1.9H34.331L25.739,68.3C19.186,74.419,15.4,83.593,15.4,93.641v29.27h3.349c0,3.932,3.932,6.99,8.883,6.99H57.047c4.805,0,8.737-3.2,8.883-6.99h3.349V93.641A35.01,35.01,0,0,0,58.94,68.3ZM51.077,54.76a1.893,1.893,0,1,1-1.893-1.893A2.035,2.035,0,0,1,51.077,54.76Zm-4.66-37.279,3.64,28.978-3.64.437L42.777,17.918Zm10.63,108.778H27.632c-2.767,0-5.1-1.456-5.1-3.349H62.29C62.144,124.658,59.814,126.259,57.047,126.259Zm8.592-6.99H19.04V93.641c0-9.9,4.077-18.785,10.776-24.173H54.863c6.7,5.388,10.776,14.271,10.776,24.173Z" transform="translate(42.6 486.1)" fill="#1e6ad3"/>
    <path id="Path_30579" data-name="Path 30579" d="M74.239,60.481V19.125H75.4L77.88,5H66.813l2.476,14.125h1.165V60.481H55.6l8.737,67.713H80.355l8.737-67.713Zm2.184,51.986-3.641-.437,3.786-28.978,3.641.437Zm2.912-35.386a1.747,1.747,0,1,1,1.747-1.747A1.771,1.771,0,0,1,79.336,77.082Z" transform="translate(60.939 487.514)" fill="#1e6ad3"/>
  </g>
</svg>
