<svg xmlns="http://www.w3.org/2000/svg" width="122.667" height="128" viewBox="0 0 122.667 128">
  <g id="Group_18754" data-name="Group 18754" transform="translate(-325 -458)">
    <g id="lotion" transform="translate(325 458)">
      <g id="Group_18752" data-name="Group 18752" transform="translate(13.333 101.333)">
        <path id="Path_30612" data-name="Path 30612" d="M27.5,24.28A15.918,15.918,0,0,1,28.407,19H8.833a5.317,5.317,0,0,0-5.28,4.747,2,2,0,0,0-.053.587v5.973c0,8.907,6.72,15.36,16,15.36h12a18.113,18.113,0,0,0,5.76-.907A26.854,26.854,0,0,1,27.5,24.28Z" transform="translate(-3.5 -19)" fill="#1e6ad3"/>
      </g>
      <path id="Path_30613" data-name="Path 30613" d="M65,0H11.667A10.709,10.709,0,0,0,1,10.72a8.622,8.622,0,0,0,.107,1.707l13.28,93.653a5.335,5.335,0,0,0,5.28,4.587,3.52,3.52,0,0,0,.747-.053,5.308,5.308,0,0,0,4.533-6.027l-.48-3.253-4.517-32H57.16l-2.773,20.64a2.6,2.6,0,0,0-.053.64,14.362,14.362,0,0,1,2.133.16A26.008,26.008,0,0,1,65.96,83.68l9.6-71.2a9.464,9.464,0,0,0,.107-1.76A10.709,10.709,0,0,0,65,0Zm0,10.933L62.173,32H14.68L11.667,10.667Z" transform="translate(-1)" fill="#1e6ad3"/>
      <g id="Group_18753" data-name="Group 18753" transform="translate(48 96)">
        <path id="Path_30614" data-name="Path 30614" d="M81.787,27.867a5.235,5.235,0,0,0-5.493.373c-1.867,1.28-2.453,1.12-2.88.747l-4.427-5.44A15.951,15.951,0,0,0,56.667,18a16.576,16.576,0,0,0-7.413,1.707,4.808,4.808,0,0,1-3.84,0A16.577,16.577,0,0,0,38,18a15.951,15.951,0,0,0-12.32,5.547l-4.427,5.44c-.427.373-1.013.533-2.88-.747A5.318,5.318,0,0,0,10,32.613C10,42.213,19.013,50,30.107,50a27.142,27.142,0,0,0,17.227-5.867A27.035,27.035,0,0,0,64.56,50c11.093,0,20.107-7.787,20.107-17.387a5.317,5.317,0,0,0-2.88-4.747Z" transform="translate(-10 -18)" fill="#1e6ad3"/>
      </g>
    </g>
  </g>
</svg>
