<svg xmlns="http://www.w3.org/2000/svg" width="128" height="128" viewBox="0 0 128 128">
  <g id="Group_90" data-name="Group 90" transform="translate(-159 -579)">
    <circle id="Ellipse_1223" data-name="Ellipse 1223" cx="64" cy="64" r="64" transform="translate(159 579)" fill="#fff"/>
    <path id="add_3_" data-name="add (3)" d="M55.421,0a55.421,55.421,0,1,0,55.421,55.421A55.421,55.421,0,0,0,55.421,0ZM73.894,60.039H60.039V73.894a4.618,4.618,0,0,1-9.237,0V60.039H36.947a4.618,4.618,0,0,1,0-9.237H50.8V36.947a4.618,4.618,0,0,1,9.237,0V50.8H73.894a4.618,4.618,0,0,1,0,9.237Z" transform="translate(167.579 587.579)" fill="#1e6ad3"/>
  </g>
</svg>
