<svg id="calendar_7_" data-name="calendar (7)" xmlns="http://www.w3.org/2000/svg" width="128" height="128" viewBox="0 0 128 128">
  <path id="Path_29720" data-name="Path 29720" d="M101.333,10.667H96V5.333a5.333,5.333,0,1,0-10.667,0v5.333H42.667V5.333A5.333,5.333,0,0,0,32,5.333v5.333H26.667A26.7,26.7,0,0,0,0,37.333v64A26.7,26.7,0,0,0,26.667,128h74.667A26.7,26.7,0,0,0,128,101.333v-64A26.7,26.7,0,0,0,101.333,10.667ZM10.667,37.333a16,16,0,0,1,16-16h74.667a16,16,0,0,1,16,16v5.333H10.667Zm90.667,80H26.667a16,16,0,0,1-16-16v-48H117.333v48A16,16,0,0,1,101.333,117.333Z" fill="#8f96b0"/>
  <circle id="Ellipse_1218" data-name="Ellipse 1218" cx="8" cy="8" r="8" transform="translate(56 77.818)" fill="#8f96b0"/>
  <circle id="Ellipse_1219" data-name="Ellipse 1219" cx="8" cy="8" r="8" transform="translate(29.333 77.818)" fill="#8f96b0"/>
  <circle id="Ellipse_1220" data-name="Ellipse 1220" cx="8" cy="8" r="8" transform="translate(82.667 77.818)" fill="#8f96b0"/>
</svg>
