<svg id="apps_2_" data-name="apps (2)" xmlns="http://www.w3.org/2000/svg" width="128" height="128" viewBox="0 0 128 128">
  <path id="Path_29708" data-name="Path 29708" d="M21.333,0h16A21.333,21.333,0,0,1,58.666,21.333v16A21.333,21.333,0,0,1,37.333,58.666h-16A21.333,21.333,0,0,1,0,37.333v-16A21.333,21.333,0,0,1,21.333,0Z" fill="#1e6ad3"/>
  <path id="Path_29709" data-name="Path 29709" d="M298.667,0h16A21.333,21.333,0,0,1,336,21.333v16a21.333,21.333,0,0,1-21.333,21.333h-16a21.333,21.333,0,0,1-21.333-21.333v-16A21.333,21.333,0,0,1,298.667,0Z" transform="translate(-208)" fill="#1e6ad3"/>
  <path id="Path_29710" data-name="Path 29710" d="M21.333,277.333h16a21.333,21.333,0,0,1,21.333,21.333v16A21.333,21.333,0,0,1,37.333,336h-16A21.333,21.333,0,0,1,0,314.667v-16A21.333,21.333,0,0,1,21.333,277.333Z" transform="translate(0 -208)" fill="#1e6ad3"/>
  <path id="Path_29711" data-name="Path 29711" d="M298.667,277.333h16A21.333,21.333,0,0,1,336,298.666v16A21.333,21.333,0,0,1,314.667,336h-16a21.333,21.333,0,0,1-21.333-21.333v-16A21.333,21.333,0,0,1,298.667,277.333Z" transform="translate(-208 -208)" fill="#1e6ad3"/>
</svg>
