<svg id="apps_3_" data-name="apps (3)" xmlns="http://www.w3.org/2000/svg" width="128" height="128" viewBox="0 0 128 128">
  <path id="Path_29716" data-name="Path 29716" d="M37.333,0h-16A21.333,21.333,0,0,0,0,21.333v16A21.333,21.333,0,0,0,21.333,58.667h16A21.333,21.333,0,0,0,58.667,37.333v-16A21.333,21.333,0,0,0,37.333,0ZM48,37.333A10.667,10.667,0,0,1,37.333,48h-16A10.667,10.667,0,0,1,10.667,37.333v-16A10.667,10.667,0,0,1,21.333,10.667h16A10.667,10.667,0,0,1,48,21.333Z" transform="translate(0)" fill="#8f96b0"/>
  <path id="Path_29717" data-name="Path 29717" d="M50.333,0h-16A21.333,21.333,0,0,0,13,21.333v16A21.333,21.333,0,0,0,34.333,58.667h16A21.333,21.333,0,0,0,71.667,37.333v-16A21.333,21.333,0,0,0,50.333,0ZM61,37.333A10.667,10.667,0,0,1,50.333,48h-16A10.667,10.667,0,0,1,23.667,37.333v-16A10.667,10.667,0,0,1,34.333,10.667h16A10.667,10.667,0,0,1,61,21.333Z" transform="translate(56.333)" fill="#8f96b0"/>
  <path id="Path_29718" data-name="Path 29718" d="M37.333,13h-16A21.333,21.333,0,0,0,0,34.333v16A21.333,21.333,0,0,0,21.333,71.667h16A21.333,21.333,0,0,0,58.667,50.333v-16A21.333,21.333,0,0,0,37.333,13ZM48,50.333A10.667,10.667,0,0,1,37.333,61h-16A10.667,10.667,0,0,1,10.667,50.333v-16A10.667,10.667,0,0,1,21.333,23.667h16A10.667,10.667,0,0,1,48,34.333Z" transform="translate(0 56.333)" fill="#8f96b0"/>
  <path id="Path_29719" data-name="Path 29719" d="M50.333,13h-16A21.333,21.333,0,0,0,13,34.333v16A21.333,21.333,0,0,0,34.333,71.667h16A21.333,21.333,0,0,0,71.667,50.333v-16A21.333,21.333,0,0,0,50.333,13ZM61,50.333A10.667,10.667,0,0,1,50.333,61h-16A10.667,10.667,0,0,1,23.667,50.333v-16A10.667,10.667,0,0,1,34.333,23.667h16A10.667,10.667,0,0,1,61,34.333Z" transform="translate(56.333 56.333)" fill="#8f96b0"/>
</svg>
