<svg xmlns="http://www.w3.org/2000/svg" width="96" height="128" viewBox="0 0 96 128">
  <path id="notebook_1_" data-name="notebook (1)" d="M88.333,16.117V5.333a5.333,5.333,0,0,0-10.667,0V11.2a26.667,26.667,0,0,0-5.333-.533H67V5.333a5.333,5.333,0,1,0-10.667,0v5.333H45.667V5.333A5.333,5.333,0,0,0,35,5.333v5.333H29.667a26.667,26.667,0,0,0-5.333.533V5.333a5.333,5.333,0,0,0-10.667,0V16.117A26.555,26.555,0,0,0,3,37.333v64A26.7,26.7,0,0,0,29.667,128H72.333A26.7,26.7,0,0,0,99,101.333v-64A26.555,26.555,0,0,0,88.333,16.117ZM51,90.667H29.667a5.333,5.333,0,0,1,0-10.667H51a5.333,5.333,0,0,1,0,10.667ZM72.333,69.333H29.667a5.333,5.333,0,0,1,0-10.667H72.333a5.333,5.333,0,0,1,0,10.667Zm0-21.333H29.667a5.333,5.333,0,1,1,0-10.667H72.333a5.333,5.333,0,0,1,0,10.667Z" transform="translate(-3)" fill="#1e6ad3"/>
</svg>
