<svg xmlns="http://www.w3.org/2000/svg" width="115.17" height="128" viewBox="0 0 115.17 128">
  <g id="settings_7_" data-name="settings (7)" transform="translate(-25.66)">
    <path id="Path_29881" data-name="Path 29881" d="M27.816,96a16,16,0,0,0,21.851,5.876l.015-.009,2.373-1.371a47.878,47.878,0,0,0,15.189,8.768V112a16,16,0,0,0,32,0v-2.736a47.874,47.874,0,0,0,15.189-8.779l2.384,1.376a16.009,16.009,0,0,0,16-27.734h0l-2.368-1.365a48.538,48.538,0,0,0,0-17.547l2.368-1.365a16.009,16.009,0,0,0-16-27.734l-2.373,1.371a47.88,47.88,0,0,0-15.2-8.752V16a16,16,0,0,0-32,0v2.736a47.874,47.874,0,0,0-15.189,8.779l-2.384-1.381a16.009,16.009,0,1,0-16,27.733h0l2.368,1.365a48.538,48.538,0,0,0,0,17.547l-2.368,1.365A16.032,16.032,0,0,0,27.816,96ZM83.245,42.667A21.333,21.333,0,1,1,61.912,64,21.333,21.333,0,0,1,83.245,42.667Z" transform="translate(0)" fill="#1e6ad3"/>
  </g>
</svg>
