<svg xmlns="http://www.w3.org/2000/svg" width="115.17" height="128" viewBox="0 0 115.17 128">
  <g id="settings_6_" data-name="settings (6)" transform="translate(-1.203)">
    <path id="Path_29879" data-name="Path 29879" d="M29.333,8A21.333,21.333,0,1,0,50.667,29.333,21.333,21.333,0,0,0,29.333,8Zm0,32A10.667,10.667,0,1,1,40,29.333,10.667,10.667,0,0,1,29.333,40Z" transform="translate(29.454 34.667)" fill="#8f96b0"/>
    <path id="Path_29880" data-name="Path 29880" d="M108.356,74.133l-2.368-1.365a48.533,48.533,0,0,0,0-17.547l2.368-1.365a16.009,16.009,0,1,0-16-27.733l-2.373,1.371a47.877,47.877,0,0,0-15.195-8.757V16a16,16,0,1,0-32,0v2.736A47.877,47.877,0,0,0,27.6,27.515l-2.384-1.381a16.009,16.009,0,1,0-16,27.733l2.368,1.365a48.533,48.533,0,0,0,0,17.547L9.214,74.144a16.009,16.009,0,0,0,16,27.733l2.373-1.371a47.878,47.878,0,0,0,15.2,8.757V112a16,16,0,1,0,32,0v-2.736a47.878,47.878,0,0,0,15.189-8.779l2.384,1.376a16.009,16.009,0,1,0,16-27.733ZM94.766,53.995a37.59,37.59,0,0,1,0,20,5.333,5.333,0,0,0,2.475,6.043l5.781,3.339a5.336,5.336,0,1,1-5.333,9.243L91.9,89.269a5.333,5.333,0,0,0-6.48.88,37.248,37.248,0,0,1-17.3,10,5.333,5.333,0,0,0-4.005,5.168V112a5.333,5.333,0,1,1-10.667,0v-6.677a5.333,5.333,0,0,0-4.005-5.168A37.248,37.248,0,0,1,32.153,90.133a5.333,5.333,0,0,0-6.48-.88L19.892,92.6a5.333,5.333,0,1,1-5.333-9.237l5.781-3.339a5.333,5.333,0,0,0,2.475-6.043,37.589,37.589,0,0,1,0-20,5.333,5.333,0,0,0-2.48-6.021l-5.781-3.339a5.336,5.336,0,1,1,5.333-9.243l5.792,3.349a5.333,5.333,0,0,0,6.475-.859,37.248,37.248,0,0,1,17.3-10,5.333,5.333,0,0,0,4.005-5.189V16a5.333,5.333,0,1,1,10.667,0v6.677a5.333,5.333,0,0,0,4.005,5.168,37.248,37.248,0,0,1,17.3,10.021,5.333,5.333,0,0,0,6.48.88L97.684,35.4a5.333,5.333,0,1,1,5.333,9.237l-5.781,3.339A5.333,5.333,0,0,0,94.766,54Z" fill="#8f96b0"/>
  </g>
</svg>
