<svg id="user-add_3_" data-name="user-add (3)" xmlns="http://www.w3.org/2000/svg" width="128" height="128" viewBox="0 0 128 128">
  <path id="Path_30562" data-name="Path 30562" d="M53.333,24H42.667V13.333a5.333,5.333,0,1,0-10.667,0V24H21.333a5.333,5.333,0,1,0,0,10.667H32V45.333a5.333,5.333,0,0,0,10.667,0V34.667H53.333a5.333,5.333,0,0,0,0-10.667Z" transform="translate(69.333 34.667)" fill="#1e6ad3"/>
  <path id="Path_30563" data-name="Path 30563" d="M35,64A32,32,0,1,0,3,32,32,32,0,0,0,35,64Zm0-53.333A21.333,21.333,0,1,1,13.667,32,21.333,21.333,0,0,1,35,10.667Z" transform="translate(13)" fill="#1e6ad3"/>
  <path id="Path_30564" data-name="Path 30564" d="M48,14A48.053,48.053,0,0,0,0,62a5.333,5.333,0,1,0,10.667,0,37.333,37.333,0,1,1,74.667,0A5.333,5.333,0,0,0,96,62,48.053,48.053,0,0,0,48,14Z" transform="translate(0 60.667)" fill="#1e6ad3"/>
</svg>
