<svg id="mode-portrait_1_" data-name="mode-portrait (1)" xmlns="http://www.w3.org/2000/svg" width="128" height="128" viewBox="0 0 128 128">
  <path id="Path_29723" data-name="Path 29723" d="M53.333,16A5.333,5.333,0,0,0,48,21.333V32A16,16,0,0,1,32,48H21.333a5.333,5.333,0,1,0,0,10.667H32A26.7,26.7,0,0,0,58.667,32V21.333A5.333,5.333,0,0,0,53.333,16Z" transform="translate(69.333 69.333)" fill="#1e6ad3"/>
  <path id="Path_29724" data-name="Path 29724" d="M5.333,42.667a5.333,5.333,0,0,0,5.333-5.333V26.667a16,16,0,0,1,16-16H37.333A5.333,5.333,0,1,0,37.333,0H26.667A26.7,26.7,0,0,0,0,26.667V37.333A5.333,5.333,0,0,0,5.333,42.667Z" fill="#1e6ad3"/>
  <path id="Path_29725" data-name="Path 29725" d="M37.333,48H26.667a16,16,0,0,1-16-16V21.333A5.333,5.333,0,1,0,0,21.333V32A26.7,26.7,0,0,0,26.667,58.667H37.333a5.333,5.333,0,1,0,0-10.667Z" transform="translate(0 69.333)" fill="#1e6ad3"/>
  <path id="Path_29726" data-name="Path 29726" d="M32,0H21.333a5.333,5.333,0,1,0,0,10.667H32a16,16,0,0,1,16,16V37.333a5.333,5.333,0,1,0,10.667,0V26.667A26.7,26.7,0,0,0,32,0Z" transform="translate(69.333)" fill="#1e6ad3"/>
  <circle id="Ellipse_1221" data-name="Ellipse 1221" cx="21.333" cy="21.333" r="21.333" transform="translate(42.667 16)" fill="#1e6ad3"/>
  <path id="Path_29727" data-name="Path 29727" d="M37,13A32.032,32.032,0,0,0,5,45a5.333,5.333,0,0,0,5.333,5.333h64A5.333,5.333,0,0,0,79.667,45a32.032,32.032,0,0,0-32-32Z" transform="translate(21.667 56.333)" fill="#1e6ad3"/>
</svg>
