<svg xmlns="http://www.w3.org/2000/svg" width="128" height="128" viewBox="0 0 128 128">
  <g id="Group_18736" data-name="Group 18736" transform="translate(2537 374.5)">
    <rect id="Rectangle_6569" data-name="Rectangle 6569" width="128" height="128" rx="64" transform="translate(-2537 -374.5)" fill="#fff"/>
    <path id="phone-call_3_" data-name="phone-call (3)" d="M62.481,29.914a2.719,2.719,0,0,1-2.719-2.719A21.775,21.775,0,0,0,38.009,5.441a2.719,2.719,0,0,1,0-5.438A27.222,27.222,0,0,1,65.2,27.195,2.719,2.719,0,0,1,62.481,29.914Zm-8.158-2.719A16.315,16.315,0,0,0,38.009,10.88a2.719,2.719,0,0,0,0,5.438A10.877,10.877,0,0,1,48.885,27.195a2.719,2.719,0,1,0,5.438,0ZM60.26,60.271l2.474-2.852a8.429,8.429,0,0,0,0-11.9c-.084-.084-6.627-5.118-6.627-5.118a8.429,8.429,0,0,0-11.641.016l-5.183,4.367A34.762,34.762,0,0,1,20.435,25.9l4.351-5.166A8.429,8.429,0,0,0,24.8,9.091s-5.039-6.534-5.123-6.619A8.381,8.381,0,0,0,7.918,2.347L4.791,5.066C-13.683,26.5,26.1,65.973,48.238,65.264A16.737,16.737,0,0,0,60.26,60.271Z" transform="translate(-2507.496 -340.037)" fill="#1e6ad3"/>
  </g>
</svg>
