<svg id="clock_4_" data-name="clock (4)" xmlns="http://www.w3.org/2000/svg" width="128" height="128" viewBox="0 0 128 128">
  <path id="Path_30558" data-name="Path 30558" d="M64,0a64,64,0,1,0,64,64A64,64,0,0,0,64,0Zm0,117.333A53.333,53.333,0,1,1,117.333,64,53.333,53.333,0,0,1,64,117.333Z" transform="translate(0 0)" fill="#1e6ad3"/>
  <path id="Path_30559" data-name="Path 30559" d="M32.984,6a5.333,5.333,0,0,0-5.333,5.333V34.4L9.672,45.664a5.345,5.345,0,1,0,5.664,9.067l20.48-12.8a5.333,5.333,0,0,0,2.5-4.576V11.333A5.333,5.333,0,0,0,32.984,6Z" transform="translate(31.016 26)" fill="#1e6ad3"/>
</svg>
