<svg id="user_10_" data-name="user (10)" xmlns="http://www.w3.org/2000/svg" width="96" height="128" viewBox="0 0 96 128">
  <path id="Path_30556" data-name="Path 30556" d="M38,64A32,32,0,1,0,6,32,32,32,0,0,0,38,64Zm0-53.333A21.333,21.333,0,1,1,16.667,32,21.333,21.333,0,0,1,38,10.667Z" transform="translate(10)" fill="#1e6ad3"/>
  <path id="Path_30557" data-name="Path 30557" d="M51,14A48.053,48.053,0,0,0,3,62a5.333,5.333,0,1,0,10.667,0,37.333,37.333,0,1,1,74.667,0A5.333,5.333,0,0,0,99,62,48.053,48.053,0,0,0,51,14Z" transform="translate(-3 60.667)" fill="#1e6ad3"/>
</svg>
