<svg id="Group_18384" data-name="Group 18384" xmlns="http://www.w3.org/2000/svg" width="128" height="128" viewBox="0 0 128 128">
  <path id="trophy_2_" data-name="trophy (2)" d="M80.485,85.333C115.525,85.141,128,66.581,128,50.667a18.667,18.667,0,0,0-14.741-18.235c.725-2.064,1.355-3.957,1.776-5.392A20.731,20.731,0,0,0,111.7,8.6,21.221,21.221,0,0,0,94.555,0H33.445A21.221,21.221,0,0,0,16.3,8.6,20.731,20.731,0,0,0,12.965,27.04c.421,1.435,1.067,3.328,1.776,5.392A18.667,18.667,0,0,0,0,50.667C0,66.581,12.475,85.141,47.515,85.333A26.986,26.986,0,0,1,48,90.245v16.421a10.043,10.043,0,0,1-10.667,10.667H32A5.333,5.333,0,0,0,32,128H96a5.333,5.333,0,0,0,0-10.667H90.709A10.053,10.053,0,0,1,80,106.667V90.24A26.977,26.977,0,0,1,80.485,85.333Zm28.848-42.667a8,8,0,0,1,8,8c0,10.848-8.581,22.4-32.192,23.84a25.851,25.851,0,0,1,4.064-4.379,80.7,80.7,0,0,0,19.877-27.515C109.168,42.619,109.243,42.667,109.333,42.667Zm-98.667,8a8,8,0,0,1,8-8c.091,0,.165-.048.251-.053A80.7,80.7,0,0,0,38.795,70.128a25.85,25.85,0,0,1,4.064,4.379C19.248,73.067,10.667,61.515,10.667,50.667Zm45.4,66.667a21.76,21.76,0,0,0,2.6-10.667V90.245A36.96,36.96,0,0,0,45.7,62.005,81.8,81.8,0,0,1,23.195,24a10.133,10.133,0,0,1,1.653-9.035,10.635,10.635,0,0,1,8.6-4.3H94.555a10.635,10.635,0,0,1,8.6,4.32,10.133,10.133,0,0,1,1.653,9.035A81.8,81.8,0,0,1,82.3,62.005,36.949,36.949,0,0,0,69.333,90.24v16.427a21.76,21.76,0,0,0,2.6,10.667Z" transform="translate(0 0)" fill="#1e6ad3"/>
  <path id="Union_7" data-name="Union 7" d="M15.358,35.7.745,22.013a2.229,2.229,0,0,1-.519-2.636A2.613,2.613,0,0,1,2.6,17.965H9.751c3.679-.008,6.785-2.334,7.379-5.527l0-.009H2.711a2.5,2.5,0,0,1-2.6-2.384,2.5,2.5,0,0,1,2.6-2.384H15.949a7.811,7.811,0,0,0-6.2-2.892H2.6A2.5,2.5,0,0,1,0,2.385,2.5,2.5,0,0,1,2.6,0H9.746c.03,0,.058,0,.088,0l.072,0c.037,0,.082,0,.137,0H23.78a2.5,2.5,0,0,1,2.6,2.385,2.5,2.5,0,0,1-2.6,2.38h-3.7v0a10.893,10.893,0,0,1,1.647,2.845l.012.034H23.78a2.5,2.5,0,0,1,2.6,2.384,2.5,2.5,0,0,1-2.6,2.384H22.389v.025C21.752,18.3,16.317,22.717,9.751,22.729H8.778l10.308,9.659a2.241,2.241,0,0,1,.659,2.368A2.516,2.516,0,0,1,17.825,36.4a3.011,3.011,0,0,1-.568.058A2.713,2.713,0,0,1,15.358,35.7Z" transform="translate(50.81 23.789)" fill="#1e6ad3"/>
</svg>
