<svg xmlns="http://www.w3.org/2000/svg" width="128" height="128" viewBox="0 0 128 128">
  <path id="target_4_" data-name="target (4)" d="M64,0a64,64,0,1,0,64,64A64,64,0,0,0,64,0Zm5.333,117.061V106.667a5.333,5.333,0,1,0-10.667,0v10.395A53.413,53.413,0,0,1,10.939,69.333H21.333a5.333,5.333,0,1,0,0-10.667H10.939A53.413,53.413,0,0,1,58.667,10.939V21.333a5.333,5.333,0,0,0,10.667,0V10.939a53.413,53.413,0,0,1,47.728,47.728H106.667a5.333,5.333,0,1,0,0,10.667h10.395a53.413,53.413,0,0,1-47.728,47.728ZM85.333,64A5.333,5.333,0,0,1,80,69.333H69.333V80a5.333,5.333,0,0,1-10.667,0V69.333H48a5.333,5.333,0,1,1,0-10.667H58.667V48a5.333,5.333,0,0,1,10.667,0V58.667H80A5.333,5.333,0,0,1,85.333,64Z" fill="#1e6ad3"/>
</svg>
