<svg id="list_1_" data-name="list (1)" xmlns="http://www.w3.org/2000/svg" width="170.049" height="128" viewBox="0 0 170.049 128">
  <path id="Path_30300" data-name="Path 30300" d="M136.116,62.863H22.405a8.485,8.485,0,0,1,0-16.97H136.113a8.485,8.485,0,0,1,0,16.97Z" transform="translate(25.451 62.883)" fill="#aaa"/>
  <path id="Path_30301" data-name="Path 30301" d="M136.116,44.032H22.405a8.485,8.485,0,0,1,0-16.97H136.113a8.485,8.485,0,0,1,0,16.97Z" transform="translate(25.451 28.453)" fill="#aaa"/>
  <path id="Path_30302" data-name="Path 30302" d="M136.116,25.2H22.405a8.485,8.485,0,0,1,0-16.97H136.113a8.485,8.485,0,0,1,0,16.97Z" transform="translate(25.451 -5.977)" fill="#aaa"/>
  <circle id="Ellipse_1375" data-name="Ellipse 1375" cx="11.395" cy="11.395" r="11.395" transform="translate(0)" fill="#aaa"/>
  <circle id="Ellipse_1376" data-name="Ellipse 1376" cx="11.395" cy="11.395" r="11.395" transform="translate(0 52.605)" fill="#aaa"/>
  <circle id="Ellipse_1377" data-name="Ellipse 1377" cx="11.395" cy="11.395" r="11.395" transform="translate(0 105.209)" fill="#aaa"/>
</svg>
