<svg xmlns="http://www.w3.org/2000/svg" width="128" height="117.333" viewBox="0 0 128 117.333">
  <path id="envelope_1_" data-name="envelope (1)" d="M101.333,1H26.667A26.7,26.7,0,0,0,0,27.667v64a26.7,26.7,0,0,0,26.667,26.667h74.667A26.7,26.7,0,0,0,128,91.667v-64A26.7,26.7,0,0,0,101.333,1ZM26.667,11.667h74.667A16,16,0,0,1,116.16,21.731L75.317,62.579a16.037,16.037,0,0,1-22.635,0L11.84,21.731A16,16,0,0,1,26.667,11.667Zm74.667,96H26.667a16,16,0,0,1-16-16v-56L45.141,70.12a26.7,26.7,0,0,0,37.717,0l34.475-34.453v56A16,16,0,0,1,101.333,107.667Z" transform="translate(0 -1)" fill="#8f96b0"/>
</svg>
