<svg id="_01_align_center" data-name="01 align center" xmlns="http://www.w3.org/2000/svg" width="18.497" height="19.415" viewBox="0 0 18.497 19.415">
  <path id="Path_30337" data-name="Path 30337" d="M18.9,13.1,16.8,5.521A7.537,7.537,0,0,0,2.178,5.9L.551,13.22a2.426,2.426,0,0,0,2.368,2.952H5.836a4.043,4.043,0,0,0,7.925,0h2.806A2.426,2.426,0,0,0,18.9,13.1Zm-9.1,4.69a2.426,2.426,0,0,1-2.277-1.617h4.554A2.426,2.426,0,0,1,9.8,17.789Zm7.411-3.554a.8.8,0,0,1-.647.319H2.919a.809.809,0,0,1-.789-.984L3.756,6.252a5.92,5.92,0,0,1,11.483-.3l2.1,7.578a.8.8,0,0,1-.132.706Z" transform="translate(-0.494 0.004)" fill="#1e6ad3"/>
</svg>
