<svg xmlns="http://www.w3.org/2000/svg" width="106.667" height="128" viewBox="0 0 106.667 128">
  <g id="lock" transform="translate(-2)">
    <path id="Path_29756" data-name="Path 29756" d="M92.667,44.928V37.333a37.333,37.333,0,1,0-74.667,0v7.595A26.667,26.667,0,0,0,2,69.333v32A26.7,26.7,0,0,0,28.667,128H82a26.7,26.7,0,0,0,26.667-26.667v-32A26.667,26.667,0,0,0,92.667,44.928Zm-64-7.595a26.667,26.667,0,1,1,53.333,0v5.333H28.667Zm69.333,64a16,16,0,0,1-16,16H28.667a16,16,0,0,1-16-16v-32a16,16,0,0,1,16-16H82a16,16,0,0,1,16,16Z" fill="#8f96b0"/>
    <path id="Path_29757" data-name="Path 29757" d="M16.333,14A5.333,5.333,0,0,0,11,19.333V30a5.333,5.333,0,1,0,10.667,0V19.333A5.333,5.333,0,0,0,16.333,14Z" transform="translate(39 60.667)" fill="#8f96b0"/>
  </g>
</svg>
